<svg xmlns="http://www.w3.org/2000/svg" width="144.083" height="144" id="facebook">
  <path d="M72.041 14.165c-31.94 0-57.833 25.894-57.833 57.834 0 31.939 25.893 57.836 57.833 57.836s57.835-25.896 57.835-57.836c-.001-31.94-25.895-57.834-57.835-57.834zM91.792 51.16a1 1 0 0 1-1 1H76.713v7.567h14.078a1 1 0 0 1 1 1v14.077a1 1 0 0 1-1 1H77.713v30.892a1 1 0 0 1-1 1H63.408a1 1 0 0 1-1-1V75.805h-9.117a1 1 0 0 1-1-1V60.728a1 1 0 0 1 1-1h9.117V54.02c0-.082.01-.161.028-.237.008-8.131 1.747-17.433 15.068-17.475.029-.002.06-.004.09-.004h13.197a1 1 0 0 1 1 1V51.16z"></path>
</svg>
